<svg width="667" height="762" viewBox="0 0 667 762" fill="none" xmlns="http://www.w3.org/2000/svg">
<path d="M248.158 11.9144C233.477 11.6571 219.153 14.7435 205.085 23.2932L205.098 23.2545C198.163 27.4744 190.864 33.5877 183.943 35.0662C161.297 39.9182 142.198 52.8216 120.641 59.6757C110.387 62.9287 105.454 69.2056 105.762 79.8363C101.556 87.4564 94.9158 92.2265 87.2005 95.8707C80.3658 99.0865 73.8538 102.76 71.819 110.871C71.7863 110.898 71.7521 110.922 71.7194 110.95C63.6813 120.318 55.2283 129.362 47.0311 143.366L298.359 60.8864C287.486 50.5503 276.196 41.8028 288.762 25.9423C277.492 26.7083 269.523 33.2456 260.029 31.7775C265.417 23.7603 276.946 25.4574 283.105 17.5815C271.21 14.3359 259.575 12.1137 248.158 11.9144ZM383.03 61.9604C372.44 62.6178 362.251 63.4537 353.462 71.0604C343.02 80.0386 331.284 82.5895 319.444 72.6044C310.508 65.0631 301.799 66.4911 291.665 71.3966C268.265 82.7531 244.262 92.9003 220.528 103.531C165.469 128.31 110.423 153.115 55.3889 177.947C37.7956 183.7 37.0162 185.299 41.062 202.824C44.019 215.619 49.3544 229.088 34.3418 238.63C32.6966 239.375 31.3044 240.584 30.3356 242.108C29.3669 243.632 28.8636 245.406 28.8874 247.212C28.8725 247.221 28.8592 247.225 28.8443 247.231C24.9472 260.847 28.2151 274.084 30.6887 287.457C32.2609 295.924 36.1981 295.601 42.7026 292.51C57.4192 285.495 72.3515 278.922 87.2689 272.351C134.435 251.616 181.61 230.896 228.793 210.191C230.116 210.245 231.439 210.124 232.73 209.831C231.198 210.641 229.782 211.601 229.009 213.404L180.624 241.762L107.766 278.881C86.8926 282.483 68.7891 293.76 49.0049 300.157C36.7604 304.108 39.1938 308.371 47.5398 313.867C55.3487 323.275 66.854 325.599 77.6453 329.255C77.6602 329.247 77.675 329.241 77.6899 329.23C86.0522 333.151 94.364 337.203 102.82 340.933C110.683 344.429 117.992 345.637 122.777 335.665C125.466 330.007 130.358 329.186 136.217 331.875C145.347 336.129 155.012 336.255 164.785 334.567L164.776 334.576C164.797 334.578 164.817 334.576 164.835 334.579L164.884 334.619L164.953 334.588C168.656 334.911 172.314 334.958 175.528 332.604C179.951 332.604 184.411 332.254 188.78 332.697C209.585 334.821 231.249 327.75 251.287 338.826C255.092 340.921 258.64 336.77 262.04 335.037C298.146 316.558 334.21 297.996 370.231 279.352C418.077 254.695 465.908 230.043 513.719 205.393C517.818 203.27 527.158 202.344 519.014 194.051V193.983C513.43 182.736 508.426 171.276 506.445 158.746C506.46 158.731 506.472 158.716 506.484 158.701C505.852 149.362 502.667 140.801 498.635 132.442C495.139 125.279 491.204 123.287 483.045 126.916C464.162 135.329 444.793 143.006 425.44 149.927C406.086 156.849 388.116 167.721 367.311 170.543C367.29 170.54 367.27 170.54 367.249 170.535L367.259 170.529C367.07 167.343 369.946 167.706 371.68 166.739L474.341 109.579C474.717 99.9954 471.276 91.3802 467.62 82.8319C467.614 82.8369 467.606 82.8404 467.598 82.8424L467.603 82.8319C462.684 70.3732 454.057 66.7291 441.584 71.7149C433.128 75.2183 424.118 77.1939 414.971 77.5501V77.5218L414.906 77.5456L407.796 76.9715C397.796 74.834 391.507 66.5952 383.026 61.9589L383.03 61.9604ZM534.125 224.1C531.8 224.24 529.172 225.216 526.072 226.843C488.224 246.694 450.04 265.897 411.965 285.292C367.224 308.138 322.413 330.746 277.834 353.835C275.025 355.274 267.139 354.966 270.902 361.994C275.817 371.141 274.328 380.811 274.581 390.402C274.576 390.402 274.572 390.407 274.567 390.408V390.447C274.46 395.147 274.363 399.841 274.274 404.533C275.321 412.06 278.08 419.246 282.338 425.541L282.385 425.552L282.351 425.566L287.793 432.812L300.548 448.778C302.726 463.628 310.291 463.789 323.06 459.422C369.348 443.563 416.093 428.993 462.663 413.941L465.351 416.71C465.363 416.708 465.375 416.706 465.388 416.704L414.629 440.726C406.175 442.984 398.501 446.936 390.906 451.223C389.793 451.099 388.668 451.284 387.653 451.758C386.639 452.232 385.775 452.977 385.156 453.911C364.994 461.411 345.351 470.238 326.355 480.333C326.042 480.186 325.684 480.166 325.356 480.276C325.028 480.386 324.755 480.618 324.594 480.924C320.5 481.37 316.655 483.107 313.614 485.883C306.557 487.469 298.626 489.768 299.003 498.181C299.943 519.213 292.645 538.337 287.216 557.958L287.203 557.962C285.533 560.871 284.797 564.222 285.092 567.563C285.388 570.904 286.702 574.074 288.857 576.644C292.996 581.603 298.493 575.756 303.035 574.104C371.978 549.107 440.864 523.952 509.691 498.638C518.789 495.304 530.466 493.826 535.99 487.308C541.931 480.278 533.893 468.949 534.511 459.312C535.288 455.177 536.078 451.042 536.854 446.892C536.857 446.886 536.859 446.883 536.866 446.88C541.006 434.153 551.139 424.784 556.314 412.635L579.915 379.843C584.928 369.092 597.224 365.703 603.756 356.471L603.451 356.575L603.689 356.444C617.733 347.829 623.739 333.233 633.631 318.046L569.766 337.667C566.149 337.905 562.588 338.436 559.058 339.119C560.932 338.038 562.575 336.6 563.894 334.885C567.819 333.004 571.783 331.164 575.68 329.215C596.244 318.948 618.81 312.965 638.163 300.117C637.642 300.02 637.168 299.75 636.82 299.351C637.263 299.592 637.706 299.834 638.163 300.117C640.031 294.512 639.332 288.812 638.271 283.261L638.31 283.343C636.805 275.481 633.351 271.448 624.871 277.12C619.512 280.959 613.332 283.495 606.821 284.527C606.804 284.537 606.788 284.548 606.771 284.558C606.772 284.538 606.776 284.518 606.783 284.499C594.996 283.611 582.832 283.841 574.742 272.781H574.781C570.991 267.579 566.96 271.328 563.116 272.86C533.409 284.796 503.711 296.754 474.021 308.732C471.793 308.939 469.663 309.446 467.576 310.105C468.85 308.87 469.969 307.481 470.729 305.735C492.199 294.601 513.649 283.428 535.078 272.216C544.419 267.323 559.688 263.803 561.462 256.895C563.774 247.942 549.271 240.59 543.989 231.182C541.034 225.949 538.002 223.867 534.128 224.1H534.125ZM538.013 500.281C536.72 500.195 535.059 500.568 532.926 501.446C457.916 532.405 382.836 563.192 307.685 593.806C301.946 596.2 300.709 598.295 303.654 604.263C310.829 618.776 317.427 633.598 321.125 649.496C321.116 649.497 321.107 649.499 321.098 649.5H321.125V649.518C321.568 653.885 322.63 658.309 322.348 662.637C321.676 672.65 323.49 675.726 334.377 670.888C384.185 648.71 434.531 627.772 484.326 605.582C505.522 596.134 519.955 579.349 528.812 557.845C528.795 557.846 528.778 557.848 528.761 557.849C528.773 557.845 528.777 557.839 528.789 557.827C541.638 543.124 543.641 525.545 542.23 507.079C541.905 502.884 540.858 500.467 538.016 500.28L538.013 500.281ZM620.708 527.765C614.721 527.809 610.805 533.997 608.029 539.535C605.548 544.468 603.751 549.75 601.648 554.885L601.63 554.901C597.949 562.494 595.004 569.28 583.324 567.425C575.112 566.121 563.849 572.64 564.642 580.421C566.281 596.67 555.41 610.582 558.743 626.44C560.025 627.617 561.273 628.062 562.502 628.094C561.019 628.993 559.634 630.068 558.461 631.521C556.39 639.411 554.132 647.273 556.323 655.537C556.335 655.537 556.345 655.533 556.363 655.533C562.762 669.628 567.568 671.422 581.395 667.474C598.144 662.67 598.075 648.404 600.846 635.529C603.384 628.933 605.249 622.27 604.484 614.413L580.291 621.751L580.277 621.818C578.374 622.531 576.201 621.99 574.293 622.781C575.527 621.798 576.624 620.645 577.453 619.17C581.566 616.763 585.475 613.849 589.844 612.021C620.123 599.429 625.03 572.884 627.302 544.822C627.435 538.813 631.602 530.427 623.405 528.142C622.528 527.891 621.62 527.765 620.708 527.768V527.765ZM484.232 615.78C433.28 642.082 384.603 667.754 335.332 692.228C322.671 698.532 320.439 705.386 326.957 716.744C329.724 727.007 336.923 733.467 345.76 738.546V738.558L345.769 738.555C345.77 738.555 345.773 738.555 345.775 738.558L345.802 738.563C349.078 742.961 353.697 744.676 358.906 745.238C377.359 756.125 399.386 746.299 409.533 722.644C422.437 715.334 435.258 707.727 448.269 700.55C456.624 695.942 462.511 690.245 460.53 679.757C460.534 679.753 460.534 679.745 460.54 679.741C463.027 672.847 471.925 671.126 473.618 663.613C472.101 647.391 485.779 634.044 484.247 615.807L484.232 615.78Z" fill="#F2F2F2"/>
</svg>
