<svg width="403" height="652" viewBox="0 0 403 652" fill="none" xmlns="http://www.w3.org/2000/svg">
<g opacity="0.2">
<path d="M322.026 568.366L202.038 600.516C193.49 602.806 184.623 597.687 182.332 589.138C180.042 580.591 185.162 571.723 193.709 569.433L313.696 537.283C322.245 534.993 331.112 540.111 333.402 548.659C335.695 557.208 330.573 566.075 322.026 568.366ZM266.471 199.632C265.396 214.259 257.122 222.503 244.277 222.294C231.488 222.088 222.18 213.323 222.487 199.976C222.785 186.989 230.928 178.458 244.779 178.61C258.621 178.759 265.482 186.938 266.471 199.632ZM420.295 150.337C372.563 71.5011 278.023 33.1973 190.193 58.8584C113.33 81.3167 63.2134 132.068 44.9905 210.121C26.9535 287.375 49.4042 353.823 106.224 409.471C119.549 422.523 131.801 438.331 139.313 455.201C146.844 472.109 149.258 477.397 167.602 472.957C193.079 466.793 218.214 459.221 243.685 453.033C256.743 449.861 261.704 442.571 261.617 429.407C261.269 376.279 261.386 323.148 261.579 270.019C261.621 257.992 257.842 248.09 244.902 247.789C231.804 247.485 227.794 257.056 227.903 269.317C228.206 303.762 227.995 338.21 227.992 372.656C227.991 428.07 227.992 428.07 173.506 436.031C152.792 412.297 133.93 390.962 115.37 369.366C48.756 291.857 60.9377 177.278 144.077 117.934C203.806 75.2984 267.969 72.926 331.941 108.925C391.339 142.353 423.654 211.22 415.088 277.84C409.367 322.344 388.116 357.869 356.596 388.407C337.573 406.838 320.239 426.681 313.999 453.33C311.08 465.794 304.092 471.977 292.017 474.953C294.273 472.855 161.869 509.955 161.869 509.955C153.492 512.198 148.476 520.888 150.721 529.264L151.067 530.559C153.312 538.934 162 543.952 170.377 541.708C170.377 541.708 322.298 500.884 324.29 500.32C338.359 496.436 346.016 486.42 346.337 472.125C346.816 450.783 356.089 434.172 371.179 419.993C379.258 412.4 387.301 404.741 394.903 396.681C457.653 330.127 468.009 229.146 420.295 150.337Z" fill="white"/>
</g>
</svg>
