<svg width="258" height="49" viewBox="0 0 258 49" fill="none" xmlns="http://www.w3.org/2000/svg">
<path d="M69.4346 20H74.9015V0.640646H69.4346V20Z" fill="#2169F3"/>
<path d="M79.2211 20H84.6879V9.62994L92.2401 20H97.7069V0.640646H92.2401V11.0107L84.6879 0.640646H79.2211V20Z" fill="#2169F3"/>
<path d="M101.944 20H107.411V9.62994L114.963 20H120.43V0.640646H114.963V11.0107L107.411 0.640646H101.944V20Z" fill="#2169F3"/>
<path d="M134.474 20.3382C140.194 20.3382 145.013 15.7449 145.013 10.3063C145.013 4.86759 140.194 0.30249 134.474 0.30249C128.753 0.30249 123.935 4.86759 123.935 10.3063C123.935 15.7449 128.753 20.3382 134.474 20.3382ZM134.474 15.3786C131.825 15.3786 129.571 13.0679 129.571 10.3063C129.571 7.57283 131.825 5.2621 134.474 5.2621C137.123 5.2621 139.377 7.57283 139.377 10.3063C139.377 13.0679 137.123 15.3786 134.474 15.3786Z" fill="#2169F3"/>
<path d="M161.707 0.640646L157.368 11.9688L153 0.640646H146.829L154.268 20H160.439L167.879 0.640646H161.707Z" fill="#2169F3"/>
<path d="M186.027 5.51572V0.640646H170.444V20H186.027V15.125H175.911V12.5606H185.125V7.68555H175.911V5.51572H186.027Z" fill="#2169F3"/>
<path d="M189.644 20H195.111V9.62994L202.663 20H208.13V0.640646H202.663V11.0107L195.111 0.640646H189.644V20Z" fill="#2169F3"/>
<path d="M217.045 20H222.512V5.51572H228.233V0.640646H211.325V5.51572H217.045V20Z" fill="#2169F3"/>
<path d="M231.488 20H236.955V0.640646H231.488V20Z" fill="#2169F3"/>
<path d="M249.052 20.3382C253.899 20.3382 257.027 17.9429 257.027 13.8569C257.027 10.1654 254.209 8.95363 249.7 7.99552C246.939 7.40375 246.263 7.09378 246.263 6.10749C246.263 5.37482 246.911 4.83941 248.235 4.83941C249.982 4.83941 251.955 5.48754 253.758 6.7838L256.492 2.9232C254.35 1.20424 251.729 0.30249 248.376 0.30249C243.783 0.30249 240.739 2.81048 240.739 6.67108C240.739 10.7008 243.98 11.7998 248.179 12.7579C250.856 13.3778 251.532 13.5187 251.532 14.4487C251.532 15.294 250.743 15.8013 249.25 15.8013C246.967 15.8013 244.825 14.9841 242.853 13.4342L239.809 17.0694C242.261 19.2392 245.558 20.3382 249.052 20.3382Z" fill="#2169F3"/>
<path d="M78.1985 40.8811H81.9745V42.7692C81.1573 43.2764 80.2274 43.5582 79.2693 43.5582C76.5359 43.5582 74.2252 41.2475 74.2252 38.4859C74.2252 35.7524 76.5359 33.4417 79.2693 33.4417C80.8192 33.4417 82.2845 34.1744 83.2426 35.4143L87.2723 31.8918C85.2716 29.7502 82.3127 28.4821 79.2693 28.4821C73.4643 28.4821 68.5892 33.0472 68.5892 38.4859C68.5892 43.9245 73.4643 48.5178 79.2693 48.5178C82.3127 48.5178 85.2716 47.2497 87.2723 45.0799V36.8515H78.1985V40.8811Z" fill="#292929"/>
<path d="M108.526 48.1797L103.904 41.6138C106.271 40.5148 107.737 38.345 107.737 35.5834C107.737 31.61 104.665 28.8203 100.325 28.8203H91.0543V48.1797H96.5212V42.3465H98.2119L102.298 48.1797H108.526ZM96.5212 33.7799H99.8745C101.171 33.7799 102.101 34.5407 102.101 35.5834C102.101 36.626 101.171 37.3869 99.8745 37.3869H96.5212V33.7799Z" fill="#292929"/>
<path d="M121.355 48.5178C127.075 48.5178 131.894 43.9245 131.894 38.4859C131.894 33.0472 127.075 28.4821 121.355 28.4821C115.634 28.4821 110.816 33.0472 110.816 38.4859C110.816 43.9245 115.634 48.5178 121.355 48.5178ZM121.355 43.5582C118.706 43.5582 116.452 41.2475 116.452 38.4859C116.452 35.7524 118.706 33.4417 121.355 33.4417C124.004 33.4417 126.258 35.7524 126.258 38.4859C126.258 41.2475 124.004 43.5582 121.355 43.5582Z" fill="#292929"/>
<path d="M144.418 48.5178C149.828 48.5178 153.633 44.8263 153.633 39.5849V28.8203H148.166V39.3031C148.166 41.7829 146.616 43.5582 144.418 43.5582C142.22 43.5582 140.67 41.7829 140.67 39.3031V28.8203H135.203V39.5849C135.203 44.8263 139.007 48.5178 144.418 48.5178Z" fill="#292929"/>
<path d="M157.655 48.1797H163.122V42.3465H166.926C171.266 42.3465 174.337 39.5567 174.337 35.5834C174.337 31.61 171.266 28.8203 166.926 28.8203H157.655V48.1797ZM163.122 37.3869V33.7799H166.475C167.772 33.7799 168.701 34.5407 168.701 35.5834C168.701 36.626 167.772 37.3869 166.475 37.3869H163.122Z" fill="#292929"/>
<rect y="1" width="23.7961" height="23.7961" fill="#292929"/>
<rect x="23.7961" y="24.7961" width="23.7961" height="23.7961" fill="#2169F3"/>
</svg>
