<svg width="211" height="40" viewBox="0 0 211 40" fill="none" xmlns="http://www.w3.org/2000/svg">
<path d="M56.7857 16.5389H61.2566V0.706241H56.7857V16.5389Z" fill="white"/>
<path d="M64.7893 16.5389H69.2603V8.05795L75.4366 16.5389H79.9076V0.706241H75.4366V9.18721L69.2603 0.706241H64.7893V16.5389Z" fill="white"/>
<path d="M83.373 16.5389H87.8439V8.05795L94.0203 16.5389H98.4912V0.706241H94.0203V9.18721L87.8439 0.706241H83.373V16.5389Z" fill="white"/>
<path d="M109.977 16.8155C114.655 16.8155 118.596 13.059 118.596 8.61106C118.596 4.16316 114.655 0.429688 109.977 0.429688C105.298 0.429688 101.357 4.16316 101.357 8.61106C101.357 13.059 105.298 16.8155 109.977 16.8155ZM109.977 12.7594C107.81 12.7594 105.967 10.8696 105.967 8.61106C105.967 6.37558 107.81 4.4858 109.977 4.4858C112.143 4.4858 113.987 6.37558 113.987 8.61106C113.987 10.8696 112.143 12.7594 109.977 12.7594Z" fill="white"/>
<path d="M132.249 0.706241L128.7 9.97078L125.128 0.706241H120.081L126.165 16.5389H131.212L137.296 0.706241H132.249Z" fill="white"/>
<path d="M152.138 4.69322V0.706241H139.394V16.5389H152.138V12.5519H143.865V10.4547H151.401V6.46777H143.865V4.69322H152.138Z" fill="white"/>
<path d="M155.097 16.5389H159.568V8.05795L165.744 16.5389H170.215V0.706241H165.744V9.18721L159.568 0.706241H155.097V16.5389Z" fill="white"/>
<path d="M177.506 16.5389H181.977V4.69322H186.655V0.706241H172.828V4.69322H177.506V16.5389Z" fill="white"/>
<path d="M189.318 16.5389H193.789V0.706241H189.318V16.5389Z" fill="white"/>
<path d="M203.682 16.8155C207.646 16.8155 210.204 14.8566 210.204 11.5149C210.204 8.49583 207.9 7.50484 204.212 6.72128C201.954 6.23731 201.401 5.9838 201.401 5.17719C201.401 4.57799 201.931 4.14011 203.014 4.14011C204.443 4.14011 206.056 4.67017 207.531 5.73029L209.766 2.57298C208.015 1.16716 205.872 0.429688 203.129 0.429688C199.373 0.429688 196.884 2.48079 196.884 5.63811C196.884 8.9337 199.534 9.8325 202.968 10.6161C205.157 11.1231 205.71 11.2383 205.71 11.9988C205.71 12.6902 205.065 13.105 203.844 13.105C201.977 13.105 200.225 12.4367 198.612 11.1692L196.123 14.1421C198.128 15.9167 200.825 16.8155 203.682 16.8155Z" fill="white"/>
<path d="M63.953 33.6161H67.0412V35.1602C66.3729 35.575 65.6123 35.8055 64.8288 35.8055C62.5933 35.8055 60.7035 33.9157 60.7035 31.6572C60.7035 29.4217 62.5933 27.5319 64.8288 27.5319C66.0963 27.5319 67.2947 28.1311 68.0783 29.1451L71.3739 26.2644C69.7376 24.5129 67.3178 23.4758 64.8288 23.4758C60.0813 23.4758 56.0943 27.2093 56.0943 31.6572C56.0943 36.1051 60.0813 39.8616 64.8288 39.8616C67.3178 39.8616 69.7376 38.8245 71.3739 37.05V30.3205H63.953V33.6161Z" fill="white"/>
<path d="M88.7555 39.585L84.9759 34.2153C86.9118 33.3165 88.1102 31.5419 88.1102 29.2834C88.1102 26.0339 85.5982 23.7524 82.0491 23.7524H74.4669V39.585H78.9379V34.8145H80.3206L83.6623 39.585H88.7555ZM78.9379 27.8085H81.6803C82.7405 27.8085 83.501 28.4307 83.501 29.2834C83.501 30.1361 82.7405 30.7584 81.6803 30.7584H78.9379V27.8085Z" fill="white"/>
<path d="M99.2476 39.8616C103.926 39.8616 107.867 36.1051 107.867 31.6572C107.867 27.2093 103.926 23.4758 99.2476 23.4758C94.5692 23.4758 90.6284 27.2093 90.6284 31.6572C90.6284 36.1051 94.5692 39.8616 99.2476 39.8616ZM99.2476 35.8055C97.0813 35.8055 95.2376 33.9157 95.2376 31.6572C95.2376 29.4217 97.0813 27.5319 99.2476 27.5319C101.414 27.5319 103.258 29.4217 103.258 31.6572C103.258 33.9157 101.414 35.8055 99.2476 35.8055Z" fill="white"/>
<path d="M118.109 39.8616C122.534 39.8616 125.645 36.8425 125.645 32.556V23.7524H121.174V32.3255C121.174 34.3536 119.907 35.8055 118.109 35.8055C116.312 35.8055 115.044 34.3536 115.044 32.3255V23.7524H110.573V32.556C110.573 36.8425 113.684 39.8616 118.109 39.8616Z" fill="white"/>
<path d="M128.935 39.585H133.406V34.8145H136.517C140.066 34.8145 142.578 32.5329 142.578 29.2834C142.578 26.0339 140.066 23.7524 136.517 23.7524H128.935V39.585ZM133.406 30.7584V27.8085H136.148C137.209 27.8085 137.969 28.4307 137.969 29.2834C137.969 30.1361 137.209 30.7584 136.148 30.7584H133.406Z" fill="white"/>
<rect y="1" width="19.4612" height="19.4612" fill="white"/>
<rect x="19.4612" y="20.4609" width="19.4612" height="19.4612" fill="white"/>
</svg>
