<svg width="57" height="57" viewBox="0 0 57 57" fill="none" xmlns="http://www.w3.org/2000/svg">
<rect width="57" height="57" rx="10" fill="#D41381"/>
<path d="M29 41.5C30.6418 41.5021 32.2679 41.1798 33.7848 40.5515C35.3016 39.9231 36.6793 39.0012 37.8388 37.8388C39.0012 36.6793 39.9231 35.3016 40.5515 33.7848C41.1798 32.2679 41.5021 30.6418 41.5 29C41.5021 27.3582 41.1797 25.7321 40.5514 24.2153C39.9231 22.6984 39.0012 21.3207 37.8388 20.1613C36.6793 18.9988 35.3016 18.0769 33.7848 17.4486C32.2679 16.8202 30.6418 16.4979 29 16.5C27.3582 16.4979 25.7321 16.8203 24.2153 17.4486C22.6984 18.0769 21.3207 18.9988 20.1613 20.1613C18.9988 21.3207 18.0769 22.6984 17.4486 24.2153C16.8203 25.7321 16.4979 27.3582 16.5 29C16.4979 30.6418 16.8202 32.2679 17.4486 33.7848C18.0769 35.3016 18.9988 36.6793 20.1613 37.8388C21.3207 39.0012 22.6984 39.9231 24.2153 40.5514C25.7321 41.1797 27.3582 41.5021 29 41.5Z" stroke="white" stroke-width="2.5" stroke-linejoin="round"/>
<path d="M24 29L27.75 32.75L35.25 25.25" stroke="white" stroke-width="2.5" stroke-linecap="round" stroke-linejoin="round"/>
</svg>
