<svg width="57" height="57" viewBox="0 0 57 57" fill="none" xmlns="http://www.w3.org/2000/svg">
<rect width="57" height="57" rx="10" fill="#D41381"/>
<path d="M40.2305 29.6624C40.3677 27.3365 39.7795 25.0253 38.5469 23.0481C37.3143 21.0708 35.4982 19.5251 33.3494 18.6243C31.2006 17.7235 28.8252 17.5121 26.5511 18.0193C24.277 18.5265 22.2165 19.7272 20.6541 21.4557C19.0917 23.1842 18.1046 25.3552 17.829 27.6688C17.5534 29.9824 18.0029 32.3245 19.1155 34.3717C20.2282 36.4188 21.9489 38.07 24.0402 39.0972C26.1316 40.1244 28.4902 40.4769 30.7905 40.1061" stroke="white" stroke-width="2" stroke-linecap="round" stroke-linejoin="round"/>
<path d="M29 22.75V29L32.75 32.75M37.75 34L35.25 37.75H40.25L37.75 41.5" stroke="white" stroke-width="2" stroke-linecap="round" stroke-linejoin="round"/>
</svg>
