<svg width="57" height="57" viewBox="0 0 57 57" fill="none" xmlns="http://www.w3.org/2000/svg">
<rect width="57" height="57" rx="10" fill="#D41381"/>
<path d="M29 35.25H19C18.6685 35.25 18.3505 35.1183 18.1161 34.8839C17.8817 34.6495 17.75 34.3315 17.75 34V19C17.75 18.6685 17.8817 18.3505 18.1161 18.1161C18.3505 17.8817 18.6685 17.75 19 17.75H39C39.3315 17.75 39.6495 17.8817 39.8839 18.1161C40.1183 18.3505 40.25 18.6685 40.25 19V28.375M37.75 36.5V36.5125M17.75 30.25H31.5M24 40.25H29.625M26.5 35.25L25.875 40.25M40.4013 39.1513C40.9258 38.6268 41.2831 37.9587 41.4279 37.2312C41.5726 36.5037 41.4985 35.7497 41.2147 35.0644C40.9309 34.3791 40.4502 33.7934 39.8335 33.3813C39.2168 32.9692 38.4917 32.7492 37.75 32.7492C37.0083 32.7492 36.2832 32.9692 35.6665 33.3813C35.0498 33.7934 34.5691 34.3791 34.2853 35.0644C34.0015 35.7497 33.9274 36.5037 34.0721 37.2312C34.2169 37.9587 34.5742 38.6268 35.0987 39.1513C35.6212 39.675 36.505 40.4575 37.75 41.5C39.0637 40.3875 39.9488 39.605 40.4013 39.1513Z" stroke="white" stroke-width="2" stroke-linecap="round" stroke-linejoin="round"/>
</svg>
