<svg width="82" height="82" viewBox="0 0 82 82" fill="none" xmlns="http://www.w3.org/2000/svg">
<path d="M41 22.2083C47.2823 22.1874 53.4431 23.9398 58.7739 27.2641C64.1048 30.5883 68.3893 35.3494 71.135 41C65.4975 52.5142 53.9833 59.7917 41 59.7917C28.0167 59.7917 16.5025 52.5142 10.865 41C13.6107 35.3494 17.8952 30.5883 23.2261 27.2641C28.5569 23.9398 34.7177 22.1874 41 22.2083ZM41 15.375C23.9167 15.375 9.3275 26.0008 3.41667 41C9.3275 55.9992 23.9167 66.625 41 66.625C58.0833 66.625 72.6725 55.9992 78.5833 41C72.6725 26.0008 58.0833 15.375 41 15.375ZM41 32.4583C43.2654 32.4583 45.438 33.3583 47.0399 34.9601C48.6417 36.562 49.5417 38.7346 49.5417 41C49.5417 43.2654 48.6417 45.438 47.0399 47.0399C45.438 48.6417 43.2654 49.5417 41 49.5417C38.7346 49.5417 36.562 48.6417 34.9601 47.0399C33.3583 45.438 32.4583 43.2654 32.4583 41C32.4583 38.7346 33.3583 36.562 34.9601 34.9601C36.562 33.3583 38.7346 32.4583 41 32.4583ZM41 25.625C32.5267 25.625 25.625 32.5267 25.625 41C25.625 49.4733 32.5267 56.375 41 56.375C49.4733 56.375 56.375 49.4733 56.375 41C56.375 32.5267 49.4733 25.625 41 25.625Z" fill="white"/>
</svg>
