<svg width="57" height="57" viewBox="0 0 57 57" fill="none" xmlns="http://www.w3.org/2000/svg">
<rect width="57" height="57" rx="10" fill="#A50F69"/>
<path d="M34.3831 15.9028C34.6243 15.9631 34.8316 16.1166 34.9596 16.3297C35.0876 16.5427 35.1257 16.7979 35.0656 17.0391L34.5969 18.9141C34.5694 19.036 34.5179 19.1511 34.4453 19.2528C34.3728 19.3545 34.2806 19.4407 34.1742 19.5063C34.0679 19.5718 33.9495 19.6155 33.826 19.6347C33.7026 19.6538 33.5765 19.6481 33.4553 19.6179C33.3341 19.5876 33.2201 19.5335 33.1201 19.4585C33.0201 19.3836 32.9361 19.2895 32.873 19.1817C32.81 19.0738 32.7691 18.9544 32.7528 18.8306C32.7365 18.7067 32.7451 18.5808 32.7781 18.4603L33.2469 16.5853C33.3071 16.3442 33.4606 16.1368 33.6737 16.0088C33.8868 15.8809 34.1419 15.8427 34.3831 15.9028ZM39.9762 18.0253C40.152 18.2011 40.2507 18.4395 40.2507 18.6881C40.2507 18.9367 40.152 19.1751 39.9762 19.3509L38.1012 21.2259C38.0148 21.3155 37.9113 21.3869 37.7969 21.436C37.6826 21.4852 37.5595 21.511 37.4351 21.5121C37.3106 21.5132 37.1871 21.4895 37.0719 21.4423C36.9567 21.3952 36.852 21.3256 36.764 21.2376C36.676 21.1495 36.6064 21.0449 36.5592 20.9297C36.5121 20.8144 36.4884 20.691 36.4895 20.5665C36.4905 20.442 36.5164 20.319 36.5655 20.2046C36.6147 20.0903 36.6861 19.9868 36.7756 19.9003L38.6506 18.0253C38.8264 17.8496 39.0648 17.7508 39.3134 17.7508C39.562 17.7508 39.8004 17.8496 39.9762 18.0253ZM25.7825 38.4366C26.253 39.22 26.9935 39.8046 27.8647 40.0806C28.7358 40.3566 29.6778 40.3049 30.5136 39.9354C31.3494 39.5658 32.0215 38.9038 32.4036 38.0737C32.7857 37.2435 32.8516 36.3024 32.5887 35.4272L25.7825 38.4366ZM24.0575 39.1978L22.1862 40.0266C21.7021 40.2404 21.1646 40.303 20.6443 40.2059C20.124 40.1089 19.6451 39.8568 19.2706 39.4828L18.5206 38.7347C18.147 38.3627 17.8946 37.8865 17.7966 37.3685C17.6985 36.8505 17.7594 36.315 17.9712 35.8322L25.2294 19.3172C25.4013 18.9272 25.6657 18.585 25.9996 18.32C26.3335 18.0551 26.7269 17.8755 27.1457 17.7966C27.5646 17.7178 27.9964 17.7422 28.4037 17.8676C28.8111 17.993 29.1818 18.2158 29.4838 18.5166L39.4812 28.4841C39.7824 28.7845 40.0058 29.1538 40.132 29.56C40.2582 29.9663 40.2834 30.3971 40.2055 30.8153C40.1275 31.2335 39.9488 31.6264 39.6847 31.9598C39.4206 32.2933 39.0792 32.5574 38.69 32.7291L34.3119 34.6641C34.7747 35.9979 34.719 37.4569 34.1559 38.7515C33.5928 40.0462 32.5635 41.0817 31.2723 41.6526C29.981 42.2235 28.5224 42.288 27.1858 41.8332C25.8493 41.3785 24.7326 40.4377 24.0575 39.1978ZM41.1875 23.3747H39.3125C39.0639 23.3747 38.8254 23.4735 38.6496 23.6493C38.4738 23.8251 38.375 24.0636 38.375 24.3122C38.375 24.5608 38.4738 24.7993 38.6496 24.9751C38.8254 25.1509 39.0639 25.2497 39.3125 25.2497H41.1875C41.4361 25.2497 41.6746 25.1509 41.8504 24.9751C42.0262 24.7993 42.125 24.5608 42.125 24.3122C42.125 24.0636 42.0262 23.8251 41.8504 23.6493C41.6746 23.4735 41.4361 23.3747 41.1875 23.3747ZM26.9469 20.0709L19.6869 36.5859C19.6268 36.7225 19.6096 36.8741 19.6374 37.0207C19.6651 37.1673 19.7367 37.302 19.8425 37.4072L20.5944 38.1572C20.7015 38.2637 20.8383 38.3353 20.9869 38.3628C21.1354 38.3902 21.2888 38.3721 21.4269 38.3109L37.9306 31.0134C38.0405 30.9648 38.1369 30.8902 38.2116 30.796C38.2862 30.7017 38.3367 30.5908 38.3589 30.4727C38.381 30.3545 38.3741 30.2328 38.3387 30.1179C38.3033 30.0031 38.2404 29.8986 38.1556 29.8134L28.1619 19.8422C28.0758 19.7567 27.9703 19.6933 27.8544 19.6575C27.7385 19.6217 27.6156 19.6145 27.4963 19.6366C27.377 19.6588 27.2649 19.7095 27.1695 19.7845C27.0741 19.8595 26.9984 19.9565 26.9487 20.0672L26.9469 20.0709Z" fill="white"/>
</svg>
