<svg width="57" height="57" viewBox="0 0 57 57" fill="none" xmlns="http://www.w3.org/2000/svg">
<rect width="57" height="57" rx="10" fill="#A50F69"/>
<path d="M28.4836 22.7486H23.6274C23.1142 22.7484 22.6134 22.9062 22.193 23.2005C21.7726 23.4948 21.4529 23.9113 21.2774 24.3936L16.5774 37.3211C16.4111 37.7773 16.5249 38.2886 16.8674 38.6323L17.2336 38.9986L25.2611 30.9711C25.2599 30.9386 25.2511 30.9061 25.2511 30.8736C25.2511 30.5027 25.3611 30.1402 25.5671 29.8319C25.7732 29.5235 26.066 29.2832 26.4086 29.1413C26.7512 28.9994 27.1282 28.9622 27.4919 29.0346C27.8556 29.1069 28.1897 29.2855 28.452 29.5477C28.7142 29.81 28.8928 30.144 28.9651 30.5078C29.0375 30.8715 29.0003 31.2485 28.8584 31.5911C28.7165 31.9337 28.4762 32.2265 28.1678 32.4326C27.8595 32.6386 27.497 32.7486 27.1261 32.7486C27.0936 32.7486 27.0611 32.7398 27.0286 32.7386L19.0011 40.7661L19.3674 41.1323C19.5354 41.3008 19.7482 41.4176 19.9806 41.469C20.213 41.5204 20.4552 41.5042 20.6786 41.4223L33.6061 36.7211C34.0884 36.5455 34.5049 36.2259 34.7992 35.8055C35.0935 35.385 35.2513 34.8842 35.2511 34.3711V29.5148L37.7499 27.0173L30.9824 20.2498L28.4836 22.7486ZM38.9249 25.3261L32.6749 19.0761L35.3249 16.4248L41.5749 22.6748L38.9249 25.3261Z" fill="white"/>
</svg>
