<svg width="239" height="239" viewBox="0 0 239 239" fill="none" xmlns="http://www.w3.org/2000/svg">
<path d="M174.272 139.414C176.492 139.414 178.623 139.075 180.744 138.767C180.057 141.077 179.35 143.427 178.215 145.538C177.08 148.606 175.307 151.264 173.545 153.943C172.071 156.841 169.472 158.803 167.56 161.282C165.558 163.692 162.829 165.296 160.668 167.297C158.547 169.389 155.769 170.434 153.558 171.908C151.248 173.232 149.236 174.696 147.085 175.393L141.718 177.604L136.997 179.566L141.827 198.865L147.772 197.431C149.674 196.953 151.995 196.396 154.634 195.728C157.332 195.23 160.21 193.866 163.417 192.621C166.584 191.207 170.248 190.251 173.654 187.981C177.08 185.81 181.033 183.997 184.519 181.09C187.895 178.092 191.967 175.493 194.975 171.679C198.261 168.114 201.508 164.37 204.027 160.107C206.945 156.044 208.927 151.583 211.018 147.172C212.91 142.76 214.433 138.249 215.678 133.867C218.038 125.084 219.094 116.739 219.502 109.599C219.841 102.449 219.642 96.5035 219.223 92.2015C219.074 90.17 218.795 88.1983 218.596 86.834L218.347 85.161L218.088 85.2207C216.317 76.947 212.24 69.3439 206.328 63.2907C200.416 57.2375 192.911 52.9817 184.682 51.0156C176.452 49.0495 167.834 49.4534 159.824 52.1806C151.815 54.9079 144.741 59.847 139.421 66.4266C134.101 73.0061 130.753 80.9574 129.764 89.3605C128.774 97.7635 130.184 106.275 133.829 113.91C137.475 121.546 143.208 127.993 150.365 132.506C157.522 137.02 165.81 139.415 174.272 139.414ZM64.7299 139.414C66.9506 139.414 69.0816 139.075 71.2028 138.767C70.5157 141.077 69.8086 143.427 68.6734 145.538C67.5381 148.606 65.7655 151.264 64.0029 153.943C62.5291 156.841 59.9299 158.803 58.0179 161.282C56.0163 163.692 53.2878 165.296 51.1268 167.297C49.0057 169.389 46.2273 170.434 44.0165 171.908C41.7062 173.232 39.6946 174.696 37.5436 175.393L32.1761 177.604L27.4558 179.566L32.2856 198.865L38.2307 197.431C40.1328 196.953 42.4531 196.396 45.092 195.728C47.7907 195.23 50.6687 193.866 53.8753 192.621C57.0321 191.197 60.7067 190.251 64.1124 187.971C67.5381 185.8 71.4916 183.987 74.977 181.08C78.3529 178.082 82.4258 175.483 85.4332 171.679C88.7195 168.114 91.9659 164.37 94.4854 160.107C97.4032 156.044 99.3849 151.583 101.476 147.172C103.368 142.76 104.892 138.249 106.137 133.867C108.497 125.084 109.552 116.739 109.961 109.599C110.299 102.449 110.1 96.5035 109.682 92.2015C109.532 90.17 109.254 88.1983 109.054 86.834L108.805 85.161L108.547 85.2207C106.775 76.947 102.698 69.3439 96.7861 63.2907C90.8742 57.2375 83.3695 52.9817 75.1399 51.0156C66.9104 49.0495 58.2923 49.4534 50.2828 52.1806C42.2732 54.9079 35.1994 59.847 29.8796 66.4266C24.5598 73.0061 21.2115 80.9574 20.2219 89.3605C19.2323 97.7635 20.642 106.275 24.2878 113.91C27.9335 121.546 33.6665 127.993 40.8234 132.506C47.9803 137.02 56.2687 139.415 64.7299 139.414Z" fill="#2169F3"/>
</svg>
