<svg width="106" height="106" viewBox="0 0 106 106" fill="none" xmlns="http://www.w3.org/2000/svg">
<rect x="0.164795" width="105.829" height="105.829" rx="52.9145" fill="#F2F2F2"/>
<path d="M33.5846 61.2694C33.5846 60.5308 33.878 59.8224 34.4003 59.3001C34.9226 58.7779 35.6309 58.4844 36.3696 58.4844H41.9395C42.6781 58.4844 43.3865 58.7779 43.9088 59.3001C44.4311 59.8224 44.7245 60.5308 44.7245 61.2694V69.6243C44.7245 70.363 44.4311 71.0713 43.9088 71.5936C43.3865 72.1159 42.6781 72.4093 41.9395 72.4093H36.3696C35.6309 72.4093 34.9226 72.1159 34.4003 71.5936C33.878 71.0713 33.5846 70.363 33.5846 69.6243V61.2694ZM47.5095 50.1295C47.5095 49.3909 47.8029 48.6825 48.3252 48.1602C48.8474 47.638 49.5558 47.3445 50.2944 47.3445H55.8644C56.603 47.3445 57.3114 47.638 57.8337 48.1602C58.3559 48.6825 58.6494 49.3909 58.6494 50.1295V69.6243C58.6494 70.363 58.3559 71.0713 57.8337 71.5936C57.3114 72.1159 56.603 72.4093 55.8644 72.4093H50.2944C49.5558 72.4093 48.8474 72.1159 48.3252 71.5936C47.8029 71.0713 47.5095 70.363 47.5095 69.6243V50.1295ZM61.4343 36.2047C61.4343 35.466 61.7278 34.7577 62.25 34.2354C62.7723 33.7131 63.4807 33.4197 64.2193 33.4197H69.7893C70.5279 33.4197 71.2362 33.7131 71.7585 34.2354C72.2808 34.7577 72.5742 35.466 72.5742 36.2047V69.6243C72.5742 70.363 72.2808 71.0713 71.7585 71.5936C71.2362 72.1159 70.5279 72.4093 69.7893 72.4093H64.2193C63.4807 72.4093 62.7723 72.1159 62.25 71.5936C61.7278 71.0713 61.4343 70.363 61.4343 69.6243V36.2047Z" fill="#292929"/>
</svg>
