<svg width="81" height="81" viewBox="0 0 81 81" fill="none" xmlns="http://www.w3.org/2000/svg">
<path d="M59.1857 5.25469C59.6486 5.44603 60.0443 5.7704 60.3228 6.18674C60.6013 6.60308 60.7499 7.09268 60.75 7.59356V20.2498H73.4063C73.9076 20.2489 74.3978 20.3969 74.8149 20.675C75.232 20.953 75.5572 21.3487 75.7491 21.8118C75.9411 22.2749 75.9912 22.7845 75.8932 23.2761C75.7951 23.7677 75.5533 24.2192 75.1984 24.5732L65.0734 34.6982C64.8379 34.9331 64.5584 35.1193 64.2509 35.2461C63.9434 35.3729 63.6139 35.4379 63.2813 35.4373H49.1417L45.3955 39.1886C45.5957 39.9391 45.6207 40.7256 45.4685 41.4873C45.3164 42.249 44.9912 42.9656 44.518 43.5816C44.0449 44.1976 43.4365 44.6966 42.7398 45.04C42.0431 45.3835 41.2768 45.5622 40.5 45.5623C39.1574 45.5623 37.8697 45.0289 36.9203 44.0795C35.9709 43.1301 35.4375 41.8425 35.4375 40.4998L35.4426 40.2669C35.4773 39.5107 35.6812 38.7719 36.0392 38.1049C36.3972 37.4379 36.9003 36.8597 37.5113 36.4128C38.1224 35.9659 38.8259 35.6618 39.57 35.5227C40.3142 35.3837 41.08 35.4133 41.8112 35.6094L45.5625 31.8581V17.7186C45.5619 17.3859 45.6269 17.0564 45.7537 16.7489C45.8805 16.4414 46.0667 16.1619 46.3016 15.9264L56.4266 5.80144C56.7809 5.44766 57.2321 5.20688 57.7232 5.10956C58.2144 5.01224 58.7233 5.06275 59.1857 5.25469ZM62.2333 30.3748L67.2958 25.3123H58.2188C57.5474 25.3123 56.9036 25.0456 56.4289 24.5709C55.9542 24.0962 55.6875 23.4524 55.6875 22.7811V13.704L50.625 18.7665V30.3748H62.2333ZM70.5966 36.3283C71.47 42.6318 70.3417 49.0505 67.3707 54.6782C64.3997 60.3059 59.7363 64.8583 54.0387 67.6929C48.341 70.5274 41.8971 71.5009 35.6164 70.4758C29.3357 69.4508 23.5356 66.479 19.0349 61.98C14.5341 57.481 11.5601 51.6821 10.5326 45.4018C9.50511 39.1216 10.4761 32.6772 13.3084 26.9785C16.1407 21.2798 20.6913 16.6145 26.3178 13.6414C31.9444 10.6682 38.3626 9.53731 44.6665 10.4083L42.7275 12.3473C41.925 13.1498 41.3127 14.122 40.9354 15.1924L40.5 15.1873C35.4753 15.1881 30.5645 16.6842 26.393 19.4854C22.2214 22.2865 18.9779 26.2657 17.0756 30.9164C15.1732 35.5671 14.698 40.6787 15.7105 45.6004C16.723 50.522 19.1774 55.031 22.7611 58.553C26.3448 62.0751 30.8956 64.4509 35.8341 65.3779C40.7726 66.3048 45.8752 65.741 50.4922 63.7582C55.1091 61.7755 59.0315 58.4634 61.7599 54.2439C64.4882 50.0245 65.8989 45.0884 65.8125 40.0644C66.8788 39.6873 67.8474 39.0768 68.6475 38.2774L70.5966 36.3283ZM40.5 22.7811C36.9956 22.7811 33.5698 23.8203 30.656 25.7672C27.7422 27.7142 25.4711 30.4815 24.13 33.7191C22.7889 36.9568 22.4381 40.5195 23.1217 43.9566C23.8054 47.3937 25.493 50.5508 27.971 53.0289C30.449 55.5069 33.6062 57.1944 37.0433 57.8781C40.4804 58.5618 44.043 58.2109 47.2807 56.8698C50.5184 55.5287 53.2857 53.2577 55.2326 50.3438C57.1796 47.43 58.2188 44.0043 58.2188 40.4998H53.1563C53.1563 43.003 52.414 45.4499 51.0233 47.5312C49.6326 49.6126 47.656 51.2347 45.3434 52.1927C43.0307 53.1506 40.486 53.4012 38.0309 52.9129C35.5758 52.4245 33.3207 51.2191 31.5507 49.4491C29.7807 47.6791 28.5753 45.424 28.087 42.9689C27.5986 40.5139 27.8492 37.9691 28.8072 35.6565C29.7651 33.3439 31.3873 31.3672 33.4686 29.9765C35.5499 28.5858 37.9968 27.8436 40.5 27.8436V22.7811Z" fill="white"/>
</svg>
